<?xml version="1.0" encoding="utf-8"?>
<!-- Generator: Adobe Illustrator 27.5.0, SVG Export Plug-In . SVG Version: 6.00 Build 0)  -->
<svg version="1.1" xmlns="http://www.w3.org/2000/svg" xmlns:xlink="http://www.w3.org/1999/xlink" x="0px" y="0px"
	 viewBox="0 0 2200 2200" style="enable-background:new 0 0 2200 2200;" xml:space="preserve">
<g id="background">
	<rect x="0" style="fill:#FFFFFF;" width="2200" height="2200"/>
</g>
<g id="Objects">
	<g>
		<path style="fill:#33C5F2;" d="M1508.023,1264.723v184.51c0,37.266,30.318,67.595,67.595,67.595h340.15v312.55
			c0,54.274-43.991,98.265-98.265,98.265H382.497c-54.274,0-98.265-43.991-98.265-98.265V884.578
			c0-54.274,43.991-98.265,98.265-98.265h1435.006c54.274,0,98.265,43.991,98.265,98.265v312.549h-340.15
			C1538.341,1197.127,1508.023,1227.456,1508.023,1264.723z"/>
		<path style="fill:#2A3468;" d="M1575.618,1229.097c-19.64,0-35.625,15.985-35.625,35.625v184.51
			c0,19.64,15.985,35.625,35.625,35.625h340.15v-255.76H1575.618z M1680.948,1410.529c-29.578,0-53.551-23.973-53.551-53.551
			s23.973-53.551,53.551-53.551c29.569,0,53.542,23.973,53.542,53.551S1710.517,1410.529,1680.948,1410.529z"/>
		<path style="fill:#2A3468;" d="M402.327,740.988l1185.24-294.195c40.882-10.147,80.43,20.784,80.43,62.907v231.289H402.327z"/>
		<path style="fill:#2A3468;" d="M1503.579,419.911l-906.69,225.044l803.377-367.224c36.946-16.373,79.439,6.289,86.435,46.087
			L1503.579,419.911z"/>
	</g>
</g>
</svg>
